<svg xmlns="http://www.w3.org/2000/svg" viewBox="0 0 127.787 127.702"><defs><style>.cls-2{fill:#bcc0c4}.cls-3{fill:#ef3829}</style></defs><g id="ico_InformacionEnLinea" transform="translate(-.985 -1)"><g id="Group_2371" data-name="Group 2371" transform="translate(24.804 24.767)"><circle id="Ellipse_239" cx="39.02" cy="39.02" r="39.02" data-name="Ellipse 239" transform="translate(2.128 2.128)" fill="#fff"/><path id="Path_1584" d="M48.848 90A41.148 41.148 0 1 1 90 48.848 41.178 41.178 0 0 1 48.848 90zm0-78.04A36.892 36.892 0 1 0 85.74 48.848a37.092 37.092 0 0 0-36.892-36.891z" data-name="Path 1584" transform="translate(-7.7 -7.7)"/></g><g id="Group_2372" data-name="Group 2372" transform="translate(.985 1)"><path id="Path_1585" d="M1.392 71.946c0-1.419-.355-2.838-.355-4.611C-.381 32.216 27.287 2.419 62.405 1v3.9A59.861 59.861 0 0 0 5.294 67.334c0 1.419.355 2.838.355 4.257z" class="cls-2" data-name="Path 1585" transform="translate(-.985 -1)"/></g><g id="Group_2373" data-name="Group 2373" transform="translate(88.655 6.676)"><path id="Path_1586" d="M58.335 90.573L54.788 88.8a59.67 59.67 0 0 0 6.74-30.152C60.463 35.59 46.984 15.37 25.7 6.147L27.474 2.6a63.405 63.405 0 0 1 38.31 56.047 64.034 64.034 0 0 1-7.449 31.926z" class="cls-2" data-name="Path 1586" transform="translate(-25.7 -2.6)"/></g><g id="Group_2374" data-name="Group 2374" transform="translate(10.97 96.777)"><path id="Path_1587" d="M57.719 59.926A64.314 64.314 0 0 1 3.8 30.128L7.347 28A59.029 59.029 0 0 0 60.2 55.669a58.216 58.216 0 0 0 32.99-11.706l2.483 3.193a65.739 65.739 0 0 1-35.116 12.415 8.816 8.816 0 0 1-2.838.355z" class="cls-2" data-name="Path 1587" transform="translate(-3.8 -28)"/></g><g id="Group_2375" data-name="Group 2375" transform="translate(12.081 29.733)"><path id="Path_1588" d="M23.577 85.367a17.766 17.766 0 0 1-2.838-2.483C-.19 63.373-1.609 30.029 17.9 9.1l3.193 2.838C3 31.093 4.066 61.954 23.577 80.046c.709.709 1.774 1.419 2.483 2.128z" class="cls-2" data-name="Path 1588" transform="translate(-4.113 -9.1)"/></g><g id="Group_2376" data-name="Group 2376" transform="translate(52.828 57.402)"><path id="Path_1589" d="M16.2 47.652V43.4s3.547-1.064 6.385-2.128V23.885L16.2 21.757V17.5h15.253v23.767c2.838 1.064 6.385 2.128 6.385 2.128v4.257z" class="cls-3" data-name="Path 1589" transform="translate(-14.072 -15.372)"/><path id="Path_1590" d="M41.5 51.309H15.6V43.5l6.385-2.128v-14.54L15.6 24.7v-7.8h19.155v24.476L41.14 43.5v7.8h.36zm-21.638-3.9h17.731V46.7l-6.385-2.128V20.8h-11v.709L26.6 23.64v20.22l-6.385 2.128v1.419z" data-name="Path 1590" transform="translate(-15.6 -16.9)"/></g><g id="Group_2377" data-name="Group 2377" transform="translate(57.439 37.892)"><circle id="Ellipse_240" cx="6.385" cy="6.385" r="6.385" class="cls-3" data-name="Ellipse 240" transform="translate(2.128 2.128)"/><path id="Path_1591" d="M25.413 28.427a8.632 8.632 0 0 1-8.513-8.514 8.513 8.513 0 1 1 17.027 0 8.632 8.632 0 0 1-8.514 8.514zm0-13.125a4.611 4.611 0 1 0 4.611 4.611 4.7 4.7 0 0 0-4.611-4.613z" data-name="Path 1591" transform="translate(-16.9 -11.4)"/></g></g></svg>