<svg xmlns="http://www.w3.org/2000/svg" viewBox="0 0 47.4 47"><defs><style>.cls-2{fill:#bcc0c4}.cls-3{fill:#ef3829}.cls-4{fill:#fff}</style></defs><g id="Group_9386" data-name="Group 9386" transform="translate(-45.1 -379.1)"><path id="Path_6125" data-name="Path 6125" d="M69.3 383.1a19.531 19.531 0 0 1 3.4.3 11.91 11.91 0 0 1 3.2 1 21.858 21.858 0 0 1 3 1.6 13.29 13.29 0 0 1 2.6 2.1 17.085 17.085 0 0 1 2.1 2.6 14.286 14.286 0 0 1 1.6 3 17.014 17.014 0 0 1 1 3.2 18.7 18.7 0 0 1 .3 3.4 19.529 19.529 0 0 1-.3 3.4 11.909 11.909 0 0 1-1 3.2 21.86 21.86 0 0 1-1.6 3 15.8 15.8 0 0 1-4.7 4.7 14.286 14.286 0 0 1-3 1.6 17.016 17.016 0 0 1-3.2 1 18.7 18.7 0 0 1-3.4.3 19.531 19.531 0 0 1-3.4-.3 11.91 11.91 0 0 1-3.2-1 21.858 21.858 0 0 1-3-1.6 15.8 15.8 0 0 1-4.7-4.7 14.286 14.286 0 0 1-1.6-3 17.015 17.015 0 0 1-1-3.2 18.7 18.7 0 0 1-.3-3.4 19.529 19.529 0 0 1 .3-3.4 11.909 11.909 0 0 1 1-3.2c.5-1 1-2 1.6-3a15.8 15.8 0 0 1 4.7-4.7 14.286 14.286 0 0 1 3-1.6 17.016 17.016 0 0 1 3.2-1 19.531 19.531 0 0 1 3.4-.3z" transform="translate(6 3)" fill="#e8e8e9"/><path id="Rectangle_3309" data-name="Rectangle 3309" class="cls-2" transform="translate(88.6 390.5)" d="M0 0h1.6v5.7H0z"/><path id="Rectangle_3310" data-name="Rectangle 3310" class="cls-2" transform="translate(86.6 392.5)" d="M0 0h5.7v1.6H0z"/><path id="Rectangle_3311" data-name="Rectangle 3311" class="cls-2" transform="translate(88.6 390.5)" d="M0 0h1.6v5.7H0z"/><path id="Rectangle_3312" data-name="Rectangle 3312" class="cls-2" transform="translate(86.6 392.5)" d="M0 0h5.7v1.6H0z"/><path id="Rectangle_3313" data-name="Rectangle 3313" class="cls-2" transform="translate(76.6 379.1)" d="M0 0h1.6v5.7H0z"/><path id="Rectangle_3314" data-name="Rectangle 3314" class="cls-2" transform="translate(74.6 381.2)" d="M0 0h5.7v1.6H0z"/><path id="Rectangle_3315" data-name="Rectangle 3315" class="cls-2" transform="translate(76.6 379.1)" d="M0 0h1.6v5.7H0z"/><path id="Rectangle_3316" data-name="Rectangle 3316" class="cls-2" transform="translate(74.6 381.2)" d="M0 0h5.7v1.6H0z"/><path id="Path_6126" data-name="Path 6126" class="cls-3" d="M63.9 385v-1.7a3.5 3.5 0 0 0-3.4-3.4H43.3a3.5 3.5 0 0 0-3.4 3.4v1.7z" transform="translate(6 3)"/><path id="Path_6127" data-name="Path 6127" d="M40.7 384.2H63v-.9a2.582 2.582 0 0 0-2.6-2.6H43.2a2.582 2.582 0 0 0-2.6 2.6zm24 1.6H39.1v-2.5a4.1 4.1 0 0 1 4.2-4.2h17.2a4.1 4.1 0 0 1 4.2 4.2z" transform="translate(6 3)"/><path id="Path_6128" data-name="Path 6128" class="cls-3" d="M39.9 415.3v3.4a3.74 3.74 0 0 0 3.4 3.4h17.2a3.83 3.83 0 0 0 3.4-3.4v-3.4z" transform="translate(6 3)"/><path id="Path_6129" data-name="Path 6129" d="M40.7 416.1v2.6a3.076 3.076 0 0 0 2.6 2.6h17.2a3.076 3.076 0 0 0 2.6-2.6v-2.6zm19.7 7H43.3a4.517 4.517 0 0 1-4.2-4.2v-4.2h25.6v4.2c0 2-2.3 4.1-4.3 4.2z" transform="translate(6 3)"/><path id="Rectangle_3317" data-name="Rectangle 3317" class="cls-4" transform="translate(45.9 388)" d="M0 0h24v30.3H0z"/><path id="Path_6130" data-name="Path 6130" d="M40.7 414.5H63v-28.8H40.7zm24 1.6H39.1v-31.9h25.6z" transform="translate(6 3)"/><path id="Rectangle_3318" data-name="Rectangle 3318" transform="translate(56.199 421)" d="M0 0h4.2v1.6H0z"/><path id="Path_6131" data-name="Path 6131" class="cls-4" d="M69.3 389.2a10.7 10.7 0 0 1 4.3.9 11.349 11.349 0 0 1 3.6 2.4 10.333 10.333 0 0 1 2.4 3.6 10.722 10.722 0 0 1 0 8.6 11.349 11.349 0 0 1-2.4 3.6 10.333 10.333 0 0 1-3.6 2.4 10.722 10.722 0 0 1-8.6 0 11.349 11.349 0 0 1-3.6-2.4 10.333 10.333 0 0 1-2.4-3.6 10.722 10.722 0 0 1 0-8.6 11.349 11.349 0 0 1 2.4-3.6 10.333 10.333 0 0 1 3.6-2.4 10.7 10.7 0 0 1 4.3-.9z" transform="translate(6 3)"/><path id="Path_6132" data-name="Path 6132" d="M69.3 390a10.4 10.4 0 1 0 10.4 10.4A10.456 10.456 0 0 0 69.3 390zm0 22.4a12 12 0 1 1 12-12 12.035 12.035 0 0 1-12 12z" transform="translate(6 3)"/><path id="Path_6133" data-name="Path 6133" d="M70.2 405.6h-1.7a2.474 2.474 0 0 1-2.5-2.5h1.6a.9.9 0 0 0 .9.9h1.7a.9.9 0 0 0 .9-.9v-.5a.961.961 0 0 0-.7-.9l-2.8-.9a2.458 2.458 0 0 1-1.7-2.4v-.5a2.474 2.474 0 0 1 2.5-2.5h1.7a2.474 2.474 0 0 1 2.5 2.5H71a.9.9 0 0 0-.9-.9h-1.7a.9.9 0 0 0-.9.9v.5a.961.961 0 0 0 .7.9l2.8.9a2.458 2.458 0 0 1 1.7 2.4v.5a2.611 2.611 0 0 1-2.5 2.5z" transform="translate(6 3)"/><path id="Rectangle_3319" data-name="Rectangle 3319" transform="translate(74.5 396.4)" d="M0 0h1.6v2.6H0z"/><path id="Rectangle_3320" data-name="Rectangle 3320" transform="translate(74.5 407.8)" d="M0 0h1.6v2.6H0z"/></g></svg>