<svg xmlns="http://www.w3.org/2000/svg" viewBox="0 0 47.5 56.2"><defs><style>.cls-1{fill:#e9eaeb}.cls-2{fill:#fff}.cls-4{fill:#bcc0c4}</style></defs><g id="Group_9384" data-name="Group 9384" transform="translate(-45.1 -194.5)"><path id="Path_6101" data-name="Path 6101" class="cls-1" d="M62.7 195.2a20.241 20.241 0 0 1 4.3.4 22.531 22.531 0 0 1 4.2 1.3A20.264 20.264 0 0 1 75 199a22.863 22.863 0 0 1 6.2 6.2 28.165 28.165 0 0 1 2.1 3.8 18.7 18.7 0 0 1 1.3 4.2 20.867 20.867 0 0 1 .4 4.3 20.24 20.24 0 0 1-.4 4.3 22.531 22.531 0 0 1-1.3 4.2 20.263 20.263 0 0 1-2.1 3.8A22.863 22.863 0 0 1 75 236a28.166 28.166 0 0 1-3.8 2.1 18.7 18.7 0 0 1-4.2 1.3 23.313 23.313 0 0 1-8.6 0 22.531 22.531 0 0 1-4.2-1.3 20.264 20.264 0 0 1-3.8-2.1 21.957 21.957 0 0 1-3.4-2.8 23.022 23.022 0 0 1-2.8-3.4 28.165 28.165 0 0 1-2.1-3.8 18.7 18.7 0 0 1-1.3-4.2 20.867 20.867 0 0 1-.4-4.3 20.24 20.24 0 0 1 .4-4.3 22.532 22.532 0 0 1 1.3-4.2 20.264 20.264 0 0 1 2.1-3.8 29.708 29.708 0 0 1 2.8-3.4 23.022 23.022 0 0 1 3.4-2.8 28.166 28.166 0 0 1 3.8-2.1 18.7 18.7 0 0 1 4.2-1.3 29.864 29.864 0 0 1 4.3-.4z" transform="translate(6 3)"/><path id="Path_6102" data-name="Path 6102" class="cls-1" d="M78.1 222.3c-1.9 0-7.5 2.5-7.5 5.8v7.5h15.2v-7.5c-.2-3.3-5.9-5.8-7.7-5.8z" transform="translate(6 3)"/><path id="Path_6103" data-name="Path 6103" d="M71.4 234.6h13.3V228c0-2.5-5.2-4.8-6.7-4.8-1.6 0-6.7 2.3-6.7 4.8zm15.2 1.7H69.7V228c0-3.9 6.3-6.6 8.4-6.6 2 0 8.4 2.7 8.4 6.6v8.3z" transform="translate(6 3)"/><path id="Path_6104" data-name="Path 6104" class="cls-2" d="M82.8 214.3a4.7 4.7 0 0 0-9.4 0v3.1a4.7 4.7 0 1 0 9.4 0z" transform="translate(6 3)"/><path id="Path_6105" data-name="Path 6105" d="M78.1 210.4a3.842 3.842 0 0 0-3.9 3.9v3.1a3.9 3.9 0 0 0 7.8 0v-3.1a3.97 3.97 0 0 0-3.9-3.9zm0 12.7a5.591 5.591 0 0 1-5.6-5.6v-3.1a5.6 5.6 0 1 1 11.2 0v3.1a5.591 5.591 0 0 1-5.6 5.6z" transform="translate(6 3)"/><path id="Path_6106" data-name="Path 6106" class="cls-1" d="M47.5 222.3c-1.9 0-7.5 2.5-7.5 5.8v7.5h15.2v-7.5c0-3.3-5.8-5.8-7.7-5.8z" transform="translate(6 3)"/><path id="Path_6107" data-name="Path 6107" d="M40.9 234.6h13.3V228c0-2.5-5.2-4.8-6.7-4.8-1.6 0-6.6 2.3-6.6 4.8zm15 1.7H39.1V228c0-3.9 6.3-6.6 8.4-6.6 2.2 0 8.4 2.7 8.4 6.6z" transform="translate(6 3)"/><path id="Path_6108" data-name="Path 6108" class="cls-2" d="M52.4 214.3a4.7 4.7 0 0 0-9.4 0v3.1a4.7 4.7 0 0 0 9.4 0z" transform="translate(6 3)"/><path id="Path_6109" data-name="Path 6109" d="M47.5 210.4a3.842 3.842 0 0 0-3.9 3.9v3.1a3.9 3.9 0 0 0 7.8 0v-3.1a3.842 3.842 0 0 0-3.9-3.9zm0 12.7a5.591 5.591 0 0 1-5.6-5.6v-3.1a5.6 5.6 0 1 1 11.2 0v3.1a5.591 5.591 0 0 1-5.6 5.6z" transform="translate(6 3)"/><path id="Path_6110" data-name="Path 6110" d="M62.7 230.2c-3 0-12 3.1-12 7.2v9.4h24.2v-9.4c0-4-9.3-7.2-12.2-7.2z" transform="translate(6 3)" fill="#ef3829"/><path id="Path_6111" data-name="Path 6111" d="M51.4 246h22.5v-8.6c0-3.1-8.3-6.4-11.3-6.4s-11.3 3.1-11.3 6.4c.1 0 .1 8.6.1 8.6zm24.2 1.7H49.7v-10.3c0-4.8 9.7-8.1 13-8.1s13 3.3 13 8.1v10.3z" transform="translate(6 3)"/><path id="Path_6112" data-name="Path 6112" class="cls-2" d="M69.5 218.8a6.9 6.9 0 0 0-13.8 0v4.5a6.9 6.9 0 0 0 13.8 0z" transform="translate(6 3)"/><path id="Path_6113" data-name="Path 6113" d="M62.7 212.9a5.911 5.911 0 0 0-5.9 5.9v4.5a5.911 5.911 0 0 0 5.9 5.9 5.977 5.977 0 0 0 5.9-5.9v-4.5a6.045 6.045 0 0 0-5.9-5.9zm0 18.3a7.7 7.7 0 0 1-7.7-7.7V219a7.7 7.7 0 0 1 15.4 0v4.5a7.835 7.835 0 0 1-7.7 7.7z" transform="translate(6 3)"/><path id="Rectangle_3286" data-name="Rectangle 3286" class="cls-4" transform="translate(78.5 194.5)" d="M0 0h1.7v5.8H0z"/><path id="Rectangle_3287" data-name="Rectangle 3287" class="cls-4" transform="translate(76.5 196.5)" d="M0 0h5.8v1.7H0z"/><path id="Rectangle_3288" data-name="Rectangle 3288" class="cls-4" transform="translate(78.5 194.5)" d="M0 0h1.7v5.8H0z"/><path id="Rectangle_3289" data-name="Rectangle 3289" class="cls-4" transform="translate(76.5 196.5)" d="M0 0h5.8v1.7H0z"/><path id="Rectangle_3290" data-name="Rectangle 3290" class="cls-4" transform="translate(75.4 207.5)" d="M0 0h1.7v5.8H0z"/><path id="Rectangle_3291" data-name="Rectangle 3291" class="cls-4" transform="translate(73.4 209.5)" d="M0 0h5.8v1.7H0z"/><path id="Rectangle_3292" data-name="Rectangle 3292" class="cls-4" transform="translate(75.4 207.5)" d="M0 0h1.7v5.8H0z"/><path id="Rectangle_3293" data-name="Rectangle 3293" class="cls-4" transform="translate(73.4 209.5)" d="M0 0h5.8v1.7H0z"/><path id="Rectangle_3294" data-name="Rectangle 3294" class="cls-4" transform="translate(60.199 202.5)" d="M0 0h1.7v5.8H0z"/><path id="Rectangle_3295" data-name="Rectangle 3295" class="cls-4" transform="translate(58.199 204.5)" d="M0 0h5.8v1.7H0z"/><path id="Rectangle_3296" data-name="Rectangle 3296" class="cls-4" transform="translate(60.199 202.5)" d="M0 0h1.7v5.8H0z"/><path id="Rectangle_3297" data-name="Rectangle 3297" class="cls-4" transform="translate(58.199 204.5)" d="M0 0h5.8v1.7H0z"/></g></svg>