<svg xmlns="http://www.w3.org/2000/svg" viewBox="0 0 52.301 49.6"><defs><style>.cls-2{fill:#ef3829}.cls-3{fill:#fff}.cls-4{fill:#bcc0c4}</style></defs><g id="Group_9385" data-name="Group 9385" transform="translate(-42.699 -288.7)"><path id="Path_6114" data-name="Path 6114" d="M68.5 290.2a18.1 18.1 0 0 1 4 .4 16.8 16.8 0 0 1 3.8 1.2 23.7 23.7 0 0 1 3.5 1.9 24.241 24.241 0 0 1 3.1 2.5 18.85 18.85 0 0 1 2.5 3.1 23.7 23.7 0 0 1 1.9 3.5 24.011 24.011 0 0 1 1.2 3.8 17.518 17.518 0 0 1 .4 4 18.1 18.1 0 0 1-.4 4 16.8 16.8 0 0 1-1.2 3.8 23.7 23.7 0 0 1-1.9 3.5 24.238 24.238 0 0 1-2.5 3.1 18.851 18.851 0 0 1-3.1 2.5 23.7 23.7 0 0 1-3.5 1.9 24.012 24.012 0 0 1-3.8 1.2 17.519 17.519 0 0 1-4 .4 18.1 18.1 0 0 1-4-.4 16.8 16.8 0 0 1-3.8-1.2 23.7 23.7 0 0 1-3.5-1.9 24.241 24.241 0 0 1-3.1-2.5 18.85 18.85 0 0 1-2.5-3.1 23.7 23.7 0 0 1-1.9-3.5 24.011 24.011 0 0 1-1.2-3.8 17.518 17.518 0 0 1-.4-4 18.1 18.1 0 0 1 .4-4 16.8 16.8 0 0 1 1.2-3.8 17.035 17.035 0 0 1 1.9-3.5 24.239 24.239 0 0 1 2.5-3.1 18.851 18.851 0 0 1 3.1-2.5 23.7 23.7 0 0 1 3.5-1.9 24.013 24.013 0 0 1 3.8-1.2 25.811 25.811 0 0 1 4-.4z" transform="translate(6 3)" fill="#e9eaeb"/><path id="Path_6115" data-name="Path 6115" class="cls-2" d="M61.7 297.2v-1.7a3.543 3.543 0 0 0-3.5-3.5H41.1a3.543 3.543 0 0 0-3.5 3.5v1.7z" transform="translate(6 3)"/><path id="Path_6116" data-name="Path 6116" d="M38.5 296.3h22.3v-.9a2.582 2.582 0 0 0-2.6-2.6H41.1a2.582 2.582 0 0 0-2.6 2.6zm24 1.6H36.7v-2.5a4.438 4.438 0 0 1 4.4-4.4h17.3a4.438 4.438 0 0 1 4.4 4.4v2.5z" transform="translate(6 3)"/><path id="Path_6117" data-name="Path 6117" class="cls-2" d="M37.6 327.5v3.5a3.846 3.846 0 0 0 3.5 3.5h17.3a4.033 4.033 0 0 0 3.5-3.5v-3.5z" transform="translate(6 3)"/><path id="Path_6118" data-name="Path 6118" d="M38.5 328.4v2.6a2.235 2.235 0 0 0 .9 1.7 2.592 2.592 0 0 0 1.7.9h17.3a2.235 2.235 0 0 0 1.7-.9 3.149 3.149 0 0 0 .9-1.7v-2.6zm2.6 6.9a4.464 4.464 0 0 1-4.2-4.2v-4.4h25.8v4.4a4.464 4.464 0 0 1-4.2 4.2z" transform="translate(6 3)"/><path id="Rectangle_3298" data-name="Rectangle 3298" class="cls-3" transform="translate(43.6 300.2)" d="M0 0h24.1v30.5H0z"/><path id="Path_6119" data-name="Path 6119" d="M62.5 328.4H36.7v-32.1h25v1.6H38.5v28.7h22.3v-.7h1.7z" transform="translate(6 3)"/><path id="Rectangle_3299" data-name="Rectangle 3299" transform="translate(53.9 333.1)" d="M0 0h4.4v1.7H0z"/><path id="Rectangle_3300" data-name="Rectangle 3300" class="cls-4" transform="translate(88.1 290.5)" d="M0 0h5.4v1.7H0z"/><path id="Rectangle_3301" data-name="Rectangle 3301" class="cls-4" transform="translate(90 288.7)" d="M0 0h1.7v5.4H0z"/><path id="Rectangle_3302" data-name="Rectangle 3302" class="cls-4" transform="translate(79.6 295.7)" d="M0 0h5.4v1.7H0z"/><path id="Rectangle_3303" data-name="Rectangle 3303" class="cls-4" transform="translate(81.4 294)" d="M0 0h1.7v5.4H0z"/><path id="Rectangle_3304" data-name="Rectangle 3304" class="cls-4" transform="translate(89.6 310.1)" d="M0 0h5.4v1.7H0z"/><path id="Rectangle_3305" data-name="Rectangle 3305" class="cls-4" transform="translate(91.4 308.3)" d="M0 0h1.7v5.4H0z"/><path id="Path_6120" data-name="Path 6120" d="M63.3 300.2a1.284 1.284 0 0 0-1 .4c-.6.6-.4 1.3.1 2a5.086 5.086 0 0 0 3.2 1 4.569 4.569 0 0 0-1.5-3 .894.894 0 0 0-.8-.4zm3.3 5.3c-.7 0-3.6-.1-5.2-1.6a3.055 3.055 0 0 1-.3-4.4 2.966 2.966 0 0 1 2-1 3.337 3.337 0 0 1 2.3.9c1.9 1.6 2.2 5.1 2.2 5.2l.1.9z" transform="translate(6 3)"/><path id="Path_6121" data-name="Path 6121" d="M70.1 300.2a1.616 1.616 0 0 0-1 .4 7.712 7.712 0 0 0-1.5 3 6.711 6.711 0 0 0 3.2-1 1.27 1.27 0 0 0 .1-2 .894.894 0 0 0-.8-.4zm-3.2 5.3h-1l.1-.9c0-.1.3-3.6 2.2-5.2a3.523 3.523 0 0 1 2.3-.9 2.61 2.61 0 0 1 2 1 3.061 3.061 0 0 1-.3 4.4c-1.8 1.6-4.7 1.6-5.3 1.6z" transform="translate(6 3)"/><path id="Rectangle_3306" data-name="Rectangle 3306" class="cls-3" transform="translate(62 308)" d="M0 0h22.3v18.4H0z"/><path id="Path_6122" data-name="Path 6122" d="M56.7 322.6h20.6v-16.7H56.7zm22.4 1.7h-24v-20h24.1z" transform="translate(6 3)"/><path id="Rectangle_3307" data-name="Rectangle 3307" class="cls-3" transform="translate(60.301 308)" d="M0 0h25.7v6.4H0z"/><path id="Path_6123" data-name="Path 6123" d="M55.1 310.7H79v-4.8H55.1zm25.7 1.7H53.4v-8.1h27.3v8.1z" transform="translate(6 3)"/><path id="Rectangle_3308" data-name="Rectangle 3308" class="cls-2" transform="translate(70.9 308)" d="M0 0h4.5v18.4H0z"/><path id="Path_6124" data-name="Path 6124" d="M65.7 322.6h2.9v-16.7h-2.9zm4.5 1.7H64v-20h6.2z" transform="translate(6 3)"/></g></svg>