<svg xmlns="http://www.w3.org/2000/svg" viewBox="0 0 47.5 47.8"><defs><style>.cls-2{fill:#ef3829}.cls-3{fill:#fff}</style></defs><g id="Group_9387" data-name="Group 9387" transform="translate(-42.699 -472.6)"><path id="Path_6134" data-name="Path 6134" d="M60.7 474a17.223 17.223 0 0 1 3.9.4 22.593 22.593 0 0 1 3.7 1.1 22.112 22.112 0 0 1 3.4 1.8 14.246 14.246 0 0 1 3 2.5 24.844 24.844 0 0 1 2.5 3 22.112 22.112 0 0 1 1.8 3.4 15.773 15.773 0 0 1 1.1 3.7 19.212 19.212 0 0 1 0 7.8 22.6 22.6 0 0 1-1.1 3.7 22.11 22.11 0 0 1-1.8 3.4 14.245 14.245 0 0 1-2.5 3 24.845 24.845 0 0 1-3 2.5 22.109 22.109 0 0 1-3.4 1.8 15.771 15.771 0 0 1-3.7 1.1 19.211 19.211 0 0 1-7.8 0 22.594 22.594 0 0 1-3.7-1.1 22.112 22.112 0 0 1-3.4-1.8 14.246 14.246 0 0 1-3-2.5 24.844 24.844 0 0 1-2.5-3 22.111 22.111 0 0 1-1.8-3.4 15.773 15.773 0 0 1-1.1-3.7 19.212 19.212 0 0 1 0-7.8 22.6 22.6 0 0 1 1.1-3.7 22.11 22.11 0 0 1 1.8-3.4 14.245 14.245 0 0 1 2.5-3 24.845 24.845 0 0 1 3-2.5 22.109 22.109 0 0 1 3.4-1.8 15.774 15.774 0 0 1 3.7-1.1 25.79 25.79 0 0 1 3.9-.4z" transform="translate(6 3)" fill="#e8e8e9"/><path id="Path_6135" data-name="Path 6135" class="cls-2" d="M72.1 479.5v-1.7a3.543 3.543 0 0 0-3.5-3.5H51.5a3.543 3.543 0 0 0-3.5 3.5v1.7z" transform="translate(6 3)"/><path id="Path_6136" data-name="Path 6136" d="M48.7 478.9h22.6v-1.1a2.689 2.689 0 0 0-2.7-2.7H51.5a2.689 2.689 0 0 0-2.7 2.7v1.1zm24.2 1.4H47.3v-2.5a4.118 4.118 0 0 1 4.1-4.1h17.2a4.118 4.118 0 0 1 4.1 4.1z" transform="translate(6 3)"/><path id="Path_6137" data-name="Path 6137" class="cls-2" d="M48.1 509.8v3.5a3.846 3.846 0 0 0 3.5 3.5h17.2a4.033 4.033 0 0 0 3.5-3.5v-3.5z" transform="translate(6 3)"/><path id="Path_6138" data-name="Path 6138" d="M48.7 510.5v2.7a3.182 3.182 0 0 0 2.7 2.7h17.2a3.182 3.182 0 0 0 2.7-2.7v-2.7zm19.9 6.9H51.5a4.492 4.492 0 0 1-4.1-4.1v-4.1h25.5v4.1a4.6 4.6 0 0 1-4.3 4.1z" transform="translate(6 3)"/><path id="Rectangle_3321" data-name="Rectangle 3321" class="cls-3" transform="translate(54.1 482.5)" d="M0 0h24v30.3H0z"/><path id="Path_6139" data-name="Path 6139" d="M72.9 510.5H47.3v-31.6h25.6v5.8h-1.5v-4.4H48.7V509h22.7v-18.3h1.5z" transform="translate(6 3)"/><path id="Rectangle_3322" data-name="Rectangle 3322" transform="translate(64.301 515.5)" d="M0 0h4.3v1.5H0z"/><path id="Path_6140" data-name="Path 6140" class="cls-3" d="M83.4 472.3v11.9a2.051 2.051 0 0 1-2.1 2.1h-12l-4.5 5.7a.725.725 0 0 1-1.3-.4v-5.3H62a2.4 2.4 0 0 1-2.3-2.3v-11.7A2.262 2.262 0 0 1 62 470h19.2a2.374 2.374 0 0 1 2.2 2.3z" transform="translate(6 3)"/><path id="Path_6141" data-name="Path 6141" d="M62.1 470.8a1.538 1.538 0 0 0-1.5 1.5v11.9a1.538 1.538 0 0 0 1.5 1.5h2.1v6l4.7-6h12.3a1.538 1.538 0 0 0 1.5-1.5v-11.9a1.538 1.538 0 0 0-1.5-1.5zm2.1 22.5a1.087 1.087 0 0 1-.5-.1 1.326 1.326 0 0 1-.9-1.3v-4.5h-.7a2.9 2.9 0 0 1-2.9-2.9v-12a2.84 2.84 0 0 1 2.9-2.9h19.2a2.9 2.9 0 0 1 2.9 2.9v11.9a2.9 2.9 0 0 1-2.9 2.9H69.7l-4.3 5.5a2.195 2.195 0 0 1-1.2.5z" transform="translate(6 3)"/><path id="Path_6142" data-name="Path 6142" class="cls-2" d="M76.2 483v-2.3c0-1.5-3.5-2.7-4.7-2.7-1.1 0-4.7 1.2-4.7 2.7v2.3" transform="translate(6 3)"/><path id="Path_6143" data-name="Path 6143" d="M77 483h-1.5v-2.3c0-.8-2.8-1.9-3.9-1.9s-3.9 1.1-3.9 1.9v2.3h-1.5v-2.3c0-2.3 4.3-3.3 5.3-3.3 1.1 0 5.3 1.1 5.3 3.3v2.3z" transform="translate(6 3)"/><path id="Path_6144" data-name="Path 6144" class="cls-3" d="M71.7 478.6a2.523 2.523 0 0 0 2.4-2.5v-.9a2.394 2.394 0 0 0-2.4-2.5 2.523 2.523 0 0 0-2.4 2.5v.8a2.309 2.309 0 0 0 2.4 2.6z" transform="translate(6 3)"/><path id="Path_6145" data-name="Path 6145" d="M71.7 473.2a1.8 1.8 0 0 0-1.7 1.9v.8a1.711 1.711 0 1 0 3.4 0v-.8a1.8 1.8 0 0 0-1.7-1.9zm0 6.1a3.182 3.182 0 0 1-3.2-3.3v-.8a3.125 3.125 0 0 1 3.2-3.3 3.311 3.311 0 0 1 3.2 3.3v.8a3.311 3.311 0 0 1-3.2 3.3z" transform="translate(6 3)"/><path id="Path_6146" data-name="Path 6146" class="cls-3" d="M37.5 487.8v10.7a2.006 2.006 0 0 0 2 2h10.7l4 5.1a.659.659 0 0 0 1.2-.4v-4.7h1.3a2.006 2.006 0 0 0 2-2V488a2.006 2.006 0 0 0-2-2H39.4a1.661 1.661 0 0 0-1.9 1.8z" transform="translate(6 3)"/><path id="Path_6147" data-name="Path 6147" d="M39.4 486.6a1.155 1.155 0 0 0-1.2 1.2v10.7a1.155 1.155 0 0 0 1.2 1.2h10.9l4.1 5.2v-5.2h2a1.155 1.155 0 0 0 1.2-1.2V488a1.155 1.155 0 0 0-1.2-1.2h-17zm15.2 19.9a1.274 1.274 0 0 1-1.1-.5l-3.7-4.8H39.4a2.689 2.689 0 0 1-2.7-2.7v-10.7a2.689 2.689 0 0 1 2.7-2.7h17.1a2.689 2.689 0 0 1 2.7 2.7v10.5a2.689 2.689 0 0 1-2.7 2.7H56v4a1.325 1.325 0 0 1-.9 1.3.646.646 0 0 1-.5.2z" transform="translate(6 3)"/><path id="Path_6148" data-name="Path 6148" class="cls-2" d="M43.9 497.3v-2c0-1.3 3.1-2.3 4.1-2.3.9 0 4.1 1.1 4.1 2.3v2" transform="translate(6 3)"/><path id="Path_6149" data-name="Path 6149" d="M52.9 497.3h-1.5v-2c0-.5-2.4-1.6-3.3-1.6s-3.5 1.1-3.5 1.6v2h-1.5v-2c0-2 3.9-3.1 4.8-3.1s4.8 1.1 4.8 3.1z" transform="translate(6 3)"/><path id="Path_6150" data-name="Path 6150" class="cls-3" d="M47.9 493.3a2.225 2.225 0 0 1-2.1-2.3v-.8a2.109 2.109 0 1 1 4.2 0v.8a1.956 1.956 0 0 1-2.1 2.3z" transform="translate(6 3)"/><path id="Path_6151" data-name="Path 6151" d="M47.9 488.7a1.561 1.561 0 0 0-1.5 1.6v.8a1.5 1.5 0 1 0 3 0v-.8a1.444 1.444 0 0 0-1.5-1.6zm0 5.4A2.952 2.952 0 0 1 45 491v-.8a3.014 3.014 0 0 1 2.9-3.1 2.952 2.952 0 0 1 2.9 3.1v.8a2.834 2.834 0 0 1-2.9 3.1z" transform="translate(6 3)"/></g></svg>